<mxfile host="65bd71144e">
    <diagram id="EI2jF3WYC9RsXL3z35xd" name="Page-1">
        <mxGraphModel dx="4401" dy="1768" grid="1" gridSize="10" guides="1" tooltips="1" connect="1" arrows="1" fold="1" page="1" pageScale="1" pageWidth="827" pageHeight="1169" math="0" shadow="0">
            <root>
                <mxCell id="0"/>
                <mxCell id="1" parent="0"/>
                <mxCell id="3" value="" style="strokeWidth=1;shadow=0;dashed=0;align=center;html=1;shape=mxgraph.mockup.containers.browserWindow;rSize=0;strokeColor=#666666;strokeColor2=#008cff;strokeColor3=#c4c4c4;mainText=,;recursiveResize=0;" vertex="1" parent="1">
                    <mxGeometry x="50" y="260" width="380" height="580" as="geometry"/>
                </mxCell>
                <mxCell id="4" value="GlutenFreeMap" style="strokeWidth=1;shadow=0;dashed=0;align=center;html=1;shape=mxgraph.mockup.containers.anchor;fontSize=17;fontColor=#666666;align=left;whiteSpace=wrap;" vertex="1" parent="3">
                    <mxGeometry x="60" y="12" width="110" height="26" as="geometry"/>
                </mxCell>
                <mxCell id="5" value="https://glutenfreemap.org" style="strokeWidth=1;shadow=0;dashed=0;align=center;html=1;shape=mxgraph.mockup.containers.anchor;rSize=0;fontSize=17;fontColor=#666666;align=left;" vertex="1" parent="3">
                    <mxGeometry x="130" y="60" width="250" height="26" as="geometry"/>
                </mxCell>
                <mxCell id="6" value="" style="verticalLabelPosition=bottom;shadow=0;dashed=0;align=center;html=1;verticalAlign=top;strokeWidth=1;shape=mxgraph.mockup.misc.map;" vertex="1" parent="3">
                    <mxGeometry y="110" width="380" height="470" as="geometry"/>
                </mxCell>
                <mxCell id="7" value="" style="verticalLabelPosition=top;shadow=0;dashed=0;align=center;html=1;verticalAlign=bottom;strokeWidth=1;shape=mxgraph.mockup.misc.pin;fillColor2=#00dd00;fillColor3=#004400;strokeColor=#006600;" vertex="1" parent="3">
                    <mxGeometry x="270" y="277.5" width="10" height="25" as="geometry"/>
                </mxCell>
                <mxCell id="9" value="" style="verticalLabelPosition=top;shadow=0;dashed=0;align=center;html=1;verticalAlign=bottom;strokeWidth=1;shape=mxgraph.mockup.misc.pin;fillColor2=#ccccff;fillColor3=#0000ff;strokeColor=#000066;" vertex="1" parent="3">
                    <mxGeometry x="170" y="440" width="10" height="25" as="geometry"/>
                </mxCell>
                <mxCell id="10" value="" style="verticalLabelPosition=top;shadow=0;dashed=0;align=center;html=1;verticalAlign=bottom;strokeWidth=1;shape=mxgraph.mockup.misc.pin;fillColor2=#00dd00;fillColor3=#004400;strokeColor=#006600;" vertex="1" parent="3">
                    <mxGeometry x="100" y="190" width="10" height="25" as="geometry"/>
                </mxCell>
                <mxCell id="11" value="Search" style="rounded=1;whiteSpace=wrap;html=1;arcSize=50;fontColor=light-dark(#b0b0b0, #ededed);align=left;spacingLeft=10;" vertex="1" parent="3">
                    <mxGeometry x="10" y="130" width="240" height="30" as="geometry"/>
                </mxCell>
                <mxCell id="17" value="" style="group" vertex="1" connectable="0" parent="3">
                    <mxGeometry x="344" y="130" width="20" height="70" as="geometry"/>
                </mxCell>
                <mxCell id="14" value="+" style="rounded=0;whiteSpace=wrap;html=1;" vertex="1" parent="17">
                    <mxGeometry width="20" height="20" as="geometry"/>
                </mxCell>
                <mxCell id="15" value="-" style="rounded=0;whiteSpace=wrap;html=1;" vertex="1" parent="17">
                    <mxGeometry y="20" width="20" height="20" as="geometry"/>
                </mxCell>
                <mxCell id="16" value="Ø" style="rounded=0;whiteSpace=wrap;html=1;" vertex="1" parent="17">
                    <mxGeometry y="50" width="20" height="20" as="geometry"/>
                </mxCell>
                <mxCell id="18" value="Filter" style="strokeWidth=1;shadow=0;dashed=0;align=center;html=1;shape=mxgraph.mockup.buttons.button;strokeColor=#666666;fontColor=#ffffff;mainText=;buttonStyle=round;fontSize=17;fontStyle=1;fillColor=#008cff;whiteSpace=wrap;" vertex="1" parent="3">
                    <mxGeometry x="264" y="130" width="66" height="30" as="geometry"/>
                </mxCell>
                <mxCell id="115" value="" style="rounded=0;whiteSpace=wrap;html=1;fontFamily=Helvetica;fontSize=11;fontColor=default;labelBackgroundColor=default;" vertex="1" parent="3">
                    <mxGeometry y="530" width="380" height="50" as="geometry"/>
                </mxCell>
                <mxCell id="116" value="" style="html=1;verticalLabelPosition=bottom;align=center;labelBackgroundColor=#ffffff;verticalAlign=top;strokeWidth=2;strokeColor=#0080F0;shadow=0;dashed=0;shape=mxgraph.ios7.icons.map;fontFamily=Helvetica;fontSize=11;fontColor=default;" vertex="1" parent="3">
                    <mxGeometry x="20" y="540" width="30" height="30" as="geometry"/>
                </mxCell>
                <mxCell id="117" value="" style="html=1;verticalLabelPosition=bottom;align=center;labelBackgroundColor=#ffffff;verticalAlign=top;strokeWidth=2;strokeColor=#0080F0;shadow=0;dashed=0;shape=mxgraph.ios7.icons.settings;fontFamily=Helvetica;fontSize=11;fontColor=default;" vertex="1" parent="3">
                    <mxGeometry x="339" y="540" width="30" height="30" as="geometry"/>
                </mxCell>
                <mxCell id="118" value="" style="html=1;verticalLabelPosition=bottom;align=center;labelBackgroundColor=#ffffff;verticalAlign=top;strokeWidth=2;strokeColor=#0080F0;shadow=0;dashed=0;shape=mxgraph.ios7.icons.info;fontFamily=Helvetica;fontSize=11;fontColor=default;" vertex="1" parent="3">
                    <mxGeometry x="70" y="540" width="30" height="30" as="geometry"/>
                </mxCell>
                <mxCell id="119" value="" style="html=1;verticalLabelPosition=bottom;align=center;labelBackgroundColor=#ffffff;verticalAlign=top;strokeWidth=2;strokeColor=#0080F0;shadow=0;dashed=0;shape=mxgraph.ios7.icons.help;fontFamily=Helvetica;fontSize=11;fontColor=default;" vertex="1" parent="3">
                    <mxGeometry x="120" y="540" width="30" height="30" as="geometry"/>
                </mxCell>
                <mxCell id="120" value="master" style="strokeWidth=1;shadow=0;dashed=0;align=center;html=1;shape=mxgraph.mockup.forms.comboBox;strokeColor=#999999;fillColor=#ddeeff;align=left;fillColor2=#aaddff;mainText=;fontColor=#666666;fontSize=17;spacingLeft=3;fontFamily=Helvetica;labelBackgroundColor=default;" vertex="1" parent="3">
                    <mxGeometry x="170" y="540" width="150" height="30" as="geometry"/>
                </mxCell>
                <mxCell id="19" value="Main screen" style="text;html=1;align=center;verticalAlign=middle;whiteSpace=wrap;rounded=0;fontSize=29;" vertex="1" parent="1">
                    <mxGeometry x="50" y="230" width="380" height="30" as="geometry"/>
                </mxCell>
                <mxCell id="34" value="" style="strokeWidth=1;shadow=0;dashed=0;align=center;html=1;shape=mxgraph.mockup.containers.browserWindow;rSize=0;strokeColor=#666666;strokeColor2=#008cff;strokeColor3=#c4c4c4;mainText=,;recursiveResize=0;" vertex="1" parent="1">
                    <mxGeometry x="620" y="60" width="380" height="580" as="geometry"/>
                </mxCell>
                <mxCell id="35" value="GlutenFreeMap" style="strokeWidth=1;shadow=0;dashed=0;align=center;html=1;shape=mxgraph.mockup.containers.anchor;fontSize=17;fontColor=#666666;align=left;whiteSpace=wrap;" vertex="1" parent="34">
                    <mxGeometry x="60" y="12" width="110" height="26" as="geometry"/>
                </mxCell>
                <mxCell id="36" value="https://glutenfreemap.org" style="strokeWidth=1;shadow=0;dashed=0;align=center;html=1;shape=mxgraph.mockup.containers.anchor;rSize=0;fontSize=17;fontColor=#666666;align=left;" vertex="1" parent="34">
                    <mxGeometry x="130" y="60" width="250" height="26" as="geometry"/>
                </mxCell>
                <mxCell id="41" value="Totale" style="rounded=1;whiteSpace=wrap;html=1;arcSize=50;spacingLeft=10;align=left;" vertex="1" parent="34">
                    <mxGeometry x="10" y="130" width="320" height="30" as="geometry"/>
                </mxCell>
                <mxCell id="51" value="&lt;h1 style=&quot;margin-top: 0px;&quot;&gt;Totale Pizzeria&lt;/h1&gt;&lt;p&gt;Parque das Nações&lt;/p&gt;&lt;p&gt;&lt;br&gt;&lt;/p&gt;&lt;p&gt;Saldanha&lt;/p&gt;&lt;p&gt;&lt;br&gt;&lt;/p&gt;&lt;p&gt;Santos&lt;/p&gt;" style="text;html=1;whiteSpace=wrap;overflow=hidden;rounded=0;" vertex="1" parent="34">
                    <mxGeometry x="10" y="180" width="360" height="270" as="geometry"/>
                </mxCell>
                <mxCell id="97" value="&lt;font style=&quot;font-size: 31px;&quot;&gt;×&lt;/font&gt;" style="text;html=1;align=center;verticalAlign=middle;whiteSpace=wrap;rounded=0;fontFamily=Helvetica;fontSize=11;fontColor=default;labelBackgroundColor=none;" vertex="1" parent="34">
                    <mxGeometry x="350" y="110" width="30" height="30" as="geometry"/>
                </mxCell>
                <mxCell id="47" value="Search" style="text;html=1;align=center;verticalAlign=middle;whiteSpace=wrap;rounded=0;fontSize=29;" vertex="1" parent="1">
                    <mxGeometry x="620" y="30" width="380" height="30" as="geometry"/>
                </mxCell>
                <mxCell id="49" value="" style="endArrow=classic;html=1;entryX=0;entryY=0.241;entryDx=0;entryDy=0;entryPerimeter=0;strokeWidth=3;fillColor=#dae8fc;strokeColor=#6c8ebf;startArrow=oval;startFill=1;" edge="1" parent="1" target="34">
                    <mxGeometry width="50" height="50" relative="1" as="geometry">
                        <mxPoint x="163" y="405" as="sourcePoint"/>
                        <mxPoint x="720" y="360" as="targetPoint"/>
                        <Array as="points">
                            <mxPoint x="163" y="380"/>
                            <mxPoint x="160" y="200"/>
                            <mxPoint x="560" y="200"/>
                        </Array>
                    </mxGeometry>
                </mxCell>
                <mxCell id="54" value="Clicking returns to the map, &lt;br&gt;centers on the venue&lt;br&gt;and opens the details" style="endArrow=classic;html=1;rounded=1;strokeColor=#6c8ebf;strokeWidth=3;align=center;verticalAlign=middle;fontFamily=Helvetica;fontSize=11;fontColor=default;labelBackgroundColor=default;fillColor=#dae8fc;startArrow=oval;startFill=1;entryX=0.175;entryY=0.958;entryDx=0;entryDy=0;entryPerimeter=0;" edge="1" parent="1" target="68">
                    <mxGeometry x="0.4052" y="-15" width="50" height="50" relative="1" as="geometry">
                        <mxPoint x="660" y="368" as="sourcePoint"/>
                        <mxPoint x="331" y="557" as="targetPoint"/>
                        <mxPoint y="1" as="offset"/>
                    </mxGeometry>
                </mxCell>
                <mxCell id="55" value="" style="strokeWidth=1;shadow=0;dashed=0;align=center;html=1;shape=mxgraph.mockup.containers.browserWindow;rSize=0;strokeColor=#666666;strokeColor2=#008cff;strokeColor3=#c4c4c4;mainText=,;recursiveResize=0;" vertex="1" parent="1">
                    <mxGeometry x="600" y="870" width="380" height="580" as="geometry"/>
                </mxCell>
                <mxCell id="56" value="GlutenFreeMap" style="strokeWidth=1;shadow=0;dashed=0;align=center;html=1;shape=mxgraph.mockup.containers.anchor;fontSize=17;fontColor=#666666;align=left;whiteSpace=wrap;" vertex="1" parent="55">
                    <mxGeometry x="60" y="12" width="110" height="26" as="geometry"/>
                </mxCell>
                <mxCell id="57" value="https://glutenfreemap.org" style="strokeWidth=1;shadow=0;dashed=0;align=center;html=1;shape=mxgraph.mockup.containers.anchor;rSize=0;fontSize=17;fontColor=#666666;align=left;" vertex="1" parent="55">
                    <mxGeometry x="130" y="60" width="250" height="26" as="geometry"/>
                </mxCell>
                <mxCell id="58" value="" style="verticalLabelPosition=bottom;shadow=0;dashed=0;align=center;html=1;verticalAlign=top;strokeWidth=1;shape=mxgraph.mockup.misc.map;" vertex="1" parent="55">
                    <mxGeometry y="110" width="380" height="470" as="geometry"/>
                </mxCell>
                <mxCell id="59" value="" style="verticalLabelPosition=top;shadow=0;dashed=0;align=center;html=1;verticalAlign=bottom;strokeWidth=1;shape=mxgraph.mockup.misc.pin;fillColor2=#00dd00;fillColor3=#004400;strokeColor=#006600;" vertex="1" parent="55">
                    <mxGeometry x="270" y="277.5" width="10" height="25" as="geometry"/>
                </mxCell>
                <mxCell id="60" value="" style="verticalLabelPosition=top;shadow=0;dashed=0;align=center;html=1;verticalAlign=bottom;strokeWidth=1;shape=mxgraph.mockup.misc.pin;fillColor2=#ccccff;fillColor3=#0000ff;strokeColor=#000066;" vertex="1" parent="55">
                    <mxGeometry x="170" y="440" width="10" height="25" as="geometry"/>
                </mxCell>
                <mxCell id="61" value="" style="verticalLabelPosition=top;shadow=0;dashed=0;align=center;html=1;verticalAlign=bottom;strokeWidth=1;shape=mxgraph.mockup.misc.pin;fillColor2=#00dd00;fillColor3=#004400;strokeColor=#006600;" vertex="1" parent="55">
                    <mxGeometry x="100" y="190" width="10" height="25" as="geometry"/>
                </mxCell>
                <mxCell id="62" value="Search" style="rounded=1;whiteSpace=wrap;html=1;arcSize=50;fontColor=light-dark(#b0b0b0, #ededed);align=left;spacingLeft=10;" vertex="1" parent="55">
                    <mxGeometry x="10" y="130" width="240" height="30" as="geometry"/>
                </mxCell>
                <mxCell id="63" value="" style="group" vertex="1" connectable="0" parent="55">
                    <mxGeometry x="344" y="130" width="20" height="70" as="geometry"/>
                </mxCell>
                <mxCell id="64" value="+" style="rounded=0;whiteSpace=wrap;html=1;" vertex="1" parent="63">
                    <mxGeometry width="20" height="20" as="geometry"/>
                </mxCell>
                <mxCell id="65" value="-" style="rounded=0;whiteSpace=wrap;html=1;" vertex="1" parent="63">
                    <mxGeometry y="20" width="20" height="20" as="geometry"/>
                </mxCell>
                <mxCell id="66" value="Ø" style="rounded=0;whiteSpace=wrap;html=1;" vertex="1" parent="63">
                    <mxGeometry y="50" width="20" height="20" as="geometry"/>
                </mxCell>
                <mxCell id="67" value="Filter" style="strokeWidth=1;shadow=0;dashed=0;align=center;html=1;shape=mxgraph.mockup.buttons.button;strokeColor=#666666;fontColor=#ffffff;mainText=;buttonStyle=round;fontSize=17;fontStyle=1;fillColor=#008cff;whiteSpace=wrap;" vertex="1" parent="55">
                    <mxGeometry x="264" y="130" width="66" height="30" as="geometry"/>
                </mxCell>
                <mxCell id="69" value="" style="rounded=0;whiteSpace=wrap;html=1;fontFamily=Helvetica;fontSize=11;fontColor=default;labelBackgroundColor=default;" vertex="1" parent="55">
                    <mxGeometry y="240" width="380" height="340" as="geometry"/>
                </mxCell>
                <mxCell id="70" value="&lt;h1 style=&quot;margin-top: 0px;&quot;&gt;Totale Pizzeria&lt;/h1&gt;&lt;div&gt;&lt;b&gt;&lt;font style=&quot;font-size: 18px;&quot;&gt;Saldanha&lt;/font&gt;&lt;/b&gt;&lt;/div&gt;&lt;p&gt;Lorem ipsum dolor sit amet, consectetur adipisicing elit, sed do eiusmod tempor incididunt ut labore et dolore magna aliqua.&lt;/p&gt;" style="text;html=1;whiteSpace=wrap;overflow=hidden;rounded=0;fontFamily=Helvetica;fontSize=11;fontColor=default;labelBackgroundColor=default;" vertex="1" parent="55">
                    <mxGeometry x="15" y="260" width="345" height="120" as="geometry"/>
                </mxCell>
                <mxCell id="71" value="Open in another map" style="strokeWidth=1;shadow=0;dashed=0;align=center;html=1;shape=mxgraph.mockup.buttons.button;strokeColor=#666666;fontColor=#ffffff;mainText=;buttonStyle=round;fontSize=17;fontStyle=1;fillColor=#008cff;whiteSpace=wrap;" vertex="1" parent="55">
                    <mxGeometry x="170" y="530" width="190" height="30" as="geometry"/>
                </mxCell>
                <mxCell id="72" value="Edit" style="strokeWidth=1;shadow=0;dashed=0;align=center;html=1;shape=mxgraph.mockup.buttons.button;strokeColor=#666666;fontColor=#ffffff;mainText=;buttonStyle=round;fontSize=17;fontStyle=1;fillColor=#008cff;whiteSpace=wrap;" vertex="1" parent="55">
                    <mxGeometry x="90" y="530" width="63" height="30" as="geometry"/>
                </mxCell>
                <mxCell id="68" value="Place details" style="text;html=1;align=center;verticalAlign=middle;whiteSpace=wrap;rounded=0;fontSize=29;" vertex="1" parent="1">
                    <mxGeometry x="600" y="840" width="380" height="30" as="geometry"/>
                </mxCell>
                <mxCell id="73" value="Clicking&amp;nbsp;centers on the venue&lt;br&gt;and opens the details" style="endArrow=classic;html=1;rounded=1;strokeColor=#6c8ebf;strokeWidth=3;align=center;verticalAlign=middle;fontFamily=Helvetica;fontSize=11;fontColor=default;labelBackgroundColor=default;fillColor=#dae8fc;startArrow=oval;startFill=1;entryX=0.061;entryY=0.903;entryDx=0;entryDy=0;entryPerimeter=0;" edge="1" parent="1" target="68">
                    <mxGeometry x="0.2366" width="50" height="50" relative="1" as="geometry">
                        <mxPoint x="326" y="561" as="sourcePoint"/>
                        <mxPoint x="677" y="879" as="targetPoint"/>
                        <mxPoint as="offset"/>
                    </mxGeometry>
                </mxCell>
                <mxCell id="74" value="" style="strokeWidth=1;shadow=0;dashed=0;align=center;html=1;shape=mxgraph.mockup.containers.browserWindow;rSize=0;strokeColor=#666666;strokeColor2=#008cff;strokeColor3=#c4c4c4;mainText=,;recursiveResize=0;" vertex="1" parent="1">
                    <mxGeometry x="1080" y="60" width="380" height="580" as="geometry"/>
                </mxCell>
                <mxCell id="75" value="GlutenFreeMap" style="strokeWidth=1;shadow=0;dashed=0;align=center;html=1;shape=mxgraph.mockup.containers.anchor;fontSize=17;fontColor=#666666;align=left;whiteSpace=wrap;" vertex="1" parent="74">
                    <mxGeometry x="60" y="12" width="110" height="26" as="geometry"/>
                </mxCell>
                <mxCell id="76" value="https://glutenfreemap.org" style="strokeWidth=1;shadow=0;dashed=0;align=center;html=1;shape=mxgraph.mockup.containers.anchor;rSize=0;fontSize=17;fontColor=#666666;align=left;" vertex="1" parent="74">
                    <mxGeometry x="130" y="60" width="250" height="26" as="geometry"/>
                </mxCell>
                <mxCell id="82" value="" style="shape=mxgraph.mockup.containers.marginRect;rectMarginTop=10;strokeColor=#666666;strokeWidth=1;dashed=0;rounded=1;arcSize=5;recursiveResize=0;html=1;whiteSpace=wrap;fontFamily=Helvetica;fontSize=11;fontColor=default;labelBackgroundColor=default;" vertex="1" parent="74">
                    <mxGeometry x="20" y="130" width="330" height="190" as="geometry"/>
                </mxCell>
                <mxCell id="83" value="Category" style="shape=rect;strokeColor=none;fillColor=none;strokeWidth=1;dashed=0;rounded=1;arcSize=9;fontColor=light-dark(#000000, #121212);fontSize=17;spacing=2;spacingTop=-2;align=left;autosize=1;spacingLeft=4;resizeWidth=0;resizeHeight=0;perimeter=none;html=1;whiteSpace=wrap;fontFamily=Helvetica;labelBackgroundColor=default;" vertex="1" parent="82">
                    <mxGeometry x="5" width="90" height="30" as="geometry"/>
                </mxCell>
                <mxCell id="81" value="Bakery" style="strokeWidth=1;shadow=0;dashed=0;align=center;html=1;shape=mxgraph.mockup.forms.rrect;rSize=0;fillColor=#eeeeee;strokeColor=#999999;gradientColor=#cccccc;align=left;spacingLeft=4;fontSize=17;fontColor=#666666;labelPosition=right;fontFamily=Helvetica;labelBackgroundColor=default;" vertex="1" parent="82">
                    <mxGeometry x="20" y="40" width="15" height="15" as="geometry"/>
                </mxCell>
                <mxCell id="86" value="Butchery" style="strokeWidth=1;shadow=0;dashed=0;align=center;html=1;shape=mxgraph.mockup.forms.rrect;rSize=0;fillColor=#eeeeee;strokeColor=#999999;gradientColor=#cccccc;align=left;spacingLeft=4;fontSize=17;fontColor=#666666;labelPosition=right;fontFamily=Helvetica;labelBackgroundColor=default;" vertex="1" parent="82">
                    <mxGeometry x="20" y="70" width="15" height="15" as="geometry"/>
                </mxCell>
                <mxCell id="87" value="Fast-food" style="strokeWidth=1;shadow=0;dashed=0;align=center;html=1;shape=mxgraph.mockup.forms.rrect;rSize=0;fillColor=#eeeeee;strokeColor=#999999;gradientColor=#cccccc;align=left;spacingLeft=4;fontSize=17;fontColor=#666666;labelPosition=right;fontFamily=Helvetica;labelBackgroundColor=default;" vertex="1" parent="82">
                    <mxGeometry x="20" y="100" width="15" height="15" as="geometry"/>
                </mxCell>
                <mxCell id="88" value="Restaurant" style="strokeWidth=1;shadow=0;dashed=0;align=center;html=1;shape=mxgraph.mockup.forms.rrect;rSize=0;fillColor=#eeeeee;strokeColor=#999999;gradientColor=#cccccc;align=left;spacingLeft=4;fontSize=17;fontColor=#666666;labelPosition=right;fontFamily=Helvetica;labelBackgroundColor=default;" vertex="1" parent="82">
                    <mxGeometry x="20" y="130" width="15" height="15" as="geometry"/>
                </mxCell>
                <mxCell id="90" value="" style="shape=mxgraph.mockup.containers.marginRect;rectMarginTop=10;strokeColor=#666666;strokeWidth=1;dashed=0;rounded=1;arcSize=5;recursiveResize=0;html=1;whiteSpace=wrap;fontFamily=Helvetica;fontSize=11;fontColor=default;labelBackgroundColor=default;" vertex="1" parent="74">
                    <mxGeometry x="20" y="334" width="330" height="190" as="geometry"/>
                </mxCell>
                <mxCell id="91" value="Region" style="shape=rect;strokeColor=none;fillColor=none;strokeWidth=1;dashed=0;rounded=1;arcSize=9;fontColor=light-dark(#000000, #121212);fontSize=17;spacing=2;spacingTop=-2;align=left;autosize=1;spacingLeft=4;resizeWidth=0;resizeHeight=0;perimeter=none;html=1;whiteSpace=wrap;fontFamily=Helvetica;labelBackgroundColor=default;" vertex="1" parent="90">
                    <mxGeometry x="5" width="80" height="30" as="geometry"/>
                </mxCell>
                <mxCell id="92" value="Açores" style="strokeWidth=1;shadow=0;dashed=0;align=center;html=1;shape=mxgraph.mockup.forms.rrect;rSize=0;fillColor=#eeeeee;strokeColor=#999999;gradientColor=#cccccc;align=left;spacingLeft=4;fontSize=17;fontColor=#666666;labelPosition=right;fontFamily=Helvetica;labelBackgroundColor=default;" vertex="1" parent="90">
                    <mxGeometry x="20" y="40" width="15" height="15" as="geometry"/>
                </mxCell>
                <mxCell id="93" value="Aveiro" style="strokeWidth=1;shadow=0;dashed=0;align=center;html=1;shape=mxgraph.mockup.forms.rrect;rSize=0;fillColor=#eeeeee;strokeColor=#999999;gradientColor=#cccccc;align=left;spacingLeft=4;fontSize=17;fontColor=#666666;labelPosition=right;fontFamily=Helvetica;labelBackgroundColor=default;" vertex="1" parent="90">
                    <mxGeometry x="20" y="70" width="15" height="15" as="geometry"/>
                </mxCell>
                <mxCell id="94" value="Beja" style="strokeWidth=1;shadow=0;dashed=0;align=center;html=1;shape=mxgraph.mockup.forms.rrect;rSize=0;fillColor=#eeeeee;strokeColor=#999999;gradientColor=#cccccc;align=left;spacingLeft=4;fontSize=17;fontColor=#666666;labelPosition=right;fontFamily=Helvetica;labelBackgroundColor=default;" vertex="1" parent="90">
                    <mxGeometry x="20" y="100" width="15" height="15" as="geometry"/>
                </mxCell>
                <mxCell id="95" value="Braga" style="strokeWidth=1;shadow=0;dashed=0;align=center;html=1;shape=mxgraph.mockup.forms.rrect;rSize=0;fillColor=#eeeeee;strokeColor=#999999;gradientColor=#cccccc;align=left;spacingLeft=4;fontSize=17;fontColor=#666666;labelPosition=right;fontFamily=Helvetica;labelBackgroundColor=default;" vertex="1" parent="90">
                    <mxGeometry x="20" y="130" width="15" height="15" as="geometry"/>
                </mxCell>
                <mxCell id="96" value="Apply" style="strokeWidth=1;shadow=0;dashed=0;align=center;html=1;shape=mxgraph.mockup.buttons.button;strokeColor=#666666;fontColor=#ffffff;mainText=;buttonStyle=round;fontSize=17;fontStyle=1;fillColor=#008cff;whiteSpace=wrap;" vertex="1" parent="74">
                    <mxGeometry x="287" y="540" width="63" height="30" as="geometry"/>
                </mxCell>
                <mxCell id="98" value="&lt;font style=&quot;font-size: 31px;&quot;&gt;×&lt;/font&gt;" style="text;html=1;align=center;verticalAlign=middle;whiteSpace=wrap;rounded=0;fontFamily=Helvetica;fontSize=11;fontColor=default;labelBackgroundColor=none;" vertex="1" parent="74">
                    <mxGeometry x="350" y="110" width="30" height="30" as="geometry"/>
                </mxCell>
                <mxCell id="79" value="Filters" style="text;html=1;align=center;verticalAlign=middle;whiteSpace=wrap;rounded=0;fontSize=29;" vertex="1" parent="1">
                    <mxGeometry x="1080" y="30" width="380" height="30" as="geometry"/>
                </mxCell>
                <mxCell id="99" value="" style="endArrow=classic;html=1;entryX=0;entryY=0.052;entryDx=0;entryDy=0;entryPerimeter=0;strokeWidth=3;fillColor=#dae8fc;strokeColor=#6c8ebf;startArrow=oval;startFill=1;" edge="1" parent="1" target="74">
                    <mxGeometry width="50" height="50" relative="1" as="geometry">
                        <mxPoint x="346" y="405" as="sourcePoint"/>
                        <mxPoint x="630" y="210" as="targetPoint"/>
                        <Array as="points">
                            <mxPoint x="346" y="90"/>
                        </Array>
                    </mxGeometry>
                </mxCell>
                <mxCell id="121" value="" style="verticalLabelPosition=bottom;shadow=0;dashed=0;align=center;html=1;verticalAlign=top;strokeWidth=1;shape=mxgraph.mockup.markup.curlyBrace;whiteSpace=wrap;strokeColor=#999999;fontFamily=Helvetica;fontSize=11;fontColor=default;labelBackgroundColor=default;rotation=-180;" vertex="1" parent="1">
                    <mxGeometry x="220" y="850" width="150" height="20" as="geometry"/>
                </mxCell>
                <mxCell id="123" value="Only if the current provider is editable." style="text;html=1;align=center;verticalAlign=middle;whiteSpace=wrap;rounded=0;fontFamily=Helvetica;fontSize=11;fontColor=default;labelBackgroundColor=default;" vertex="1" parent="1">
                    <mxGeometry x="220" y="880" width="150" height="30" as="geometry"/>
                </mxCell>
                <mxCell id="124" value="Navigates to the&lt;div&gt;map (this view)&lt;/div&gt;" style="endArrow=classic;html=1;rounded=1;strokeColor=#6c8ebf;strokeWidth=3;align=center;verticalAlign=middle;fontFamily=Helvetica;fontSize=11;fontColor=default;labelBackgroundColor=default;fillColor=#dae8fc;startArrow=oval;startFill=1;entryX=-0.002;entryY=0.575;entryDx=0;entryDy=0;entryPerimeter=0;" edge="1" parent="1" target="6">
                    <mxGeometry x="0.4387" y="10" width="50" height="50" relative="1" as="geometry">
                        <mxPoint x="80" y="820" as="sourcePoint"/>
                        <mxPoint x="87" y="1321" as="targetPoint"/>
                        <mxPoint as="offset"/>
                        <Array as="points">
                            <mxPoint x="80" y="870"/>
                            <mxPoint x="10" y="870"/>
                            <mxPoint x="10" y="640"/>
                        </Array>
                    </mxGeometry>
                </mxCell>
                <mxCell id="125" value="Opens the&lt;div&gt;&quot;about&quot; page&lt;/div&gt;" style="endArrow=classic;html=1;rounded=1;strokeColor=#6c8ebf;strokeWidth=3;align=center;verticalAlign=middle;fontFamily=Helvetica;fontSize=11;fontColor=default;labelBackgroundColor=default;fillColor=#dae8fc;startArrow=oval;startFill=1;" edge="1" parent="1">
                    <mxGeometry x="1" y="20" width="50" height="50" relative="1" as="geometry">
                        <mxPoint x="136" y="817" as="sourcePoint"/>
                        <mxPoint x="80" y="940" as="targetPoint"/>
                        <mxPoint x="-20" y="20" as="offset"/>
                    </mxGeometry>
                </mxCell>
                <mxCell id="126" value="Opens the&lt;div&gt;&quot;bug report&quot; page&lt;/div&gt;" style="endArrow=classic;html=1;rounded=1;strokeColor=#6c8ebf;strokeWidth=3;align=center;verticalAlign=middle;fontFamily=Helvetica;fontSize=11;fontColor=default;labelBackgroundColor=default;fillColor=#dae8fc;startArrow=oval;startFill=1;" edge="1" parent="1">
                    <mxGeometry x="1" y="20" width="50" height="50" relative="1" as="geometry">
                        <mxPoint x="185" y="815" as="sourcePoint"/>
                        <mxPoint x="185" y="938" as="targetPoint"/>
                        <mxPoint x="-20" y="20" as="offset"/>
                    </mxGeometry>
                </mxCell>
                <mxCell id="127" value="" style="strokeWidth=1;shadow=0;dashed=0;align=center;html=1;shape=mxgraph.mockup.containers.browserWindow;rSize=0;strokeColor=#666666;strokeColor2=#008cff;strokeColor3=#c4c4c4;mainText=,;recursiveResize=0;" vertex="1" parent="1">
                    <mxGeometry x="1080" y="860" width="380" height="580" as="geometry"/>
                </mxCell>
                <mxCell id="128" value="GlutenFreeMap" style="strokeWidth=1;shadow=0;dashed=0;align=center;html=1;shape=mxgraph.mockup.containers.anchor;fontSize=17;fontColor=#666666;align=left;whiteSpace=wrap;" vertex="1" parent="127">
                    <mxGeometry x="60" y="12" width="110" height="26" as="geometry"/>
                </mxCell>
                <mxCell id="129" value="https://glutenfreemap.org" style="strokeWidth=1;shadow=0;dashed=0;align=center;html=1;shape=mxgraph.mockup.containers.anchor;rSize=0;fontSize=17;fontColor=#666666;align=left;" vertex="1" parent="127">
                    <mxGeometry x="130" y="60" width="250" height="26" as="geometry"/>
                </mxCell>
                <mxCell id="143" value="&lt;font style=&quot;font-size: 31px;&quot;&gt;×&lt;/font&gt;" style="text;html=1;align=center;verticalAlign=middle;whiteSpace=wrap;rounded=0;fontFamily=Helvetica;fontSize=11;fontColor=default;labelBackgroundColor=none;" vertex="1" parent="127">
                    <mxGeometry x="350" y="110" width="30" height="30" as="geometry"/>
                </mxCell>
                <mxCell id="147" value="" style="swimlane;fontStyle=0;childLayout=stackLayout;horizontal=1;startSize=0;horizontalStack=0;resizeParent=1;resizeParentMax=0;resizeLast=0;collapsible=0;marginBottom=0;whiteSpace=wrap;html=1;strokeColor=none;fillColor=none;fontFamily=Helvetica;fontSize=11;fontColor=default;labelBackgroundColor=default;" vertex="1" parent="127">
                    <mxGeometry x="15" y="160" width="350" height="90" as="geometry"/>
                </mxCell>
                <mxCell id="148" value="Provider 1" style="text;strokeColor=#DFDFDF;fillColor=#FFFFFF;align=left;verticalAlign=middle;spacingLeft=10;spacingRight=10;overflow=hidden;points=[[0,0.5],[1,0.5]];portConstraint=eastwest;rotatable=0;whiteSpace=wrap;html=1;shape=mxgraph.bootstrap.topButton;rSize=5;fontColor=default;fontFamily=Helvetica;fontSize=11;labelBackgroundColor=default;" vertex="1" parent="147">
                    <mxGeometry width="350" height="30" as="geometry"/>
                </mxCell>
                <mxCell id="149" value="Provider 2" style="text;strokeColor=#DFDFDF;fillColor=#FFFFFF;align=left;verticalAlign=middle;spacingLeft=10;spacingRight=10;overflow=hidden;points=[[0,0.5],[1,0.5]];portConstraint=eastwest;rotatable=0;whiteSpace=wrap;html=1;rSize=5;fontColor=default;fontFamily=Helvetica;fontSize=11;labelBackgroundColor=default;" vertex="1" parent="147">
                    <mxGeometry y="30" width="350" height="30" as="geometry"/>
                </mxCell>
                <mxCell id="150" value="Provider 3" style="text;strokeColor=#DFDFDF;fillColor=#FFFFFF;align=left;verticalAlign=middle;spacingLeft=10;spacingRight=10;overflow=hidden;points=[[0,0.5],[1,0.5]];portConstraint=eastwest;rotatable=0;whiteSpace=wrap;html=1;shape=mxgraph.bootstrap.bottomButton;rSize=5;fontColor=default;fontFamily=Helvetica;fontSize=11;labelBackgroundColor=default;" vertex="1" parent="147">
                    <mxGeometry y="60" width="350" height="30" as="geometry"/>
                </mxCell>
                <mxCell id="151" value="Subscriptions" style="text;html=1;align=left;verticalAlign=middle;whiteSpace=wrap;rounded=0;fontFamily=Helvetica;fontSize=11;fontColor=default;labelBackgroundColor=default;fontStyle=1" vertex="1" parent="127">
                    <mxGeometry x="15" y="130" width="175" height="30" as="geometry"/>
                </mxCell>
                <mxCell id="164" value="Select a list" style="strokeWidth=1;shadow=0;dashed=0;align=center;html=1;shape=mxgraph.mockup.buttons.button;strokeColor=#666666;fontColor=#ffffff;mainText=;buttonStyle=round;fontSize=17;fontStyle=1;fillColor=#008cff;whiteSpace=wrap;" vertex="1" parent="127">
                    <mxGeometry x="250" y="380" width="115" height="30" as="geometry"/>
                </mxCell>
                <mxCell id="165" value="&lt;h1 style=&quot;margin-top: 0px;&quot;&gt;Subscribe to a list&lt;/h1&gt;&lt;p&gt;Lorem ipsum dolor sit amet, consectetur adipisicing elit, sed do eiusmod tempor incididunt ut labore et dolore magna aliqua.&lt;/p&gt;" style="text;html=1;whiteSpace=wrap;overflow=hidden;rounded=0;fontFamily=Helvetica;fontSize=11;fontColor=default;labelBackgroundColor=default;" vertex="1" parent="127">
                    <mxGeometry x="15" y="280" width="345" height="90" as="geometry"/>
                </mxCell>
                <mxCell id="166" value="&lt;h1 style=&quot;margin-top: 0px;&quot;&gt;Manage a list&lt;/h1&gt;&lt;p&gt;Lorem ipsum dolor sit amet, consectetur adipisicing elit, sed do eiusmod tempor incididunt ut labore et dolore magna aliqua.&lt;/p&gt;" style="text;html=1;whiteSpace=wrap;overflow=hidden;rounded=0;fontFamily=Helvetica;fontSize=11;fontColor=default;labelBackgroundColor=default;" vertex="1" parent="127">
                    <mxGeometry x="15" y="430" width="345" height="90" as="geometry"/>
                </mxCell>
                <mxCell id="167" value="Add my list" style="strokeWidth=1;shadow=0;dashed=0;align=center;html=1;shape=mxgraph.mockup.buttons.button;strokeColor=#666666;fontColor=#ffffff;mainText=;buttonStyle=round;fontSize=17;fontStyle=1;fillColor=#008cff;whiteSpace=wrap;" vertex="1" parent="127">
                    <mxGeometry x="250" y="520" width="115" height="30" as="geometry"/>
                </mxCell>
                <mxCell id="144" value="Settings" style="text;html=1;align=center;verticalAlign=middle;whiteSpace=wrap;rounded=0;fontSize=29;" vertex="1" parent="1">
                    <mxGeometry x="1080" y="830" width="380" height="30" as="geometry"/>
                </mxCell>
                <mxCell id="145" value="" style="endArrow=classic;html=1;rounded=1;strokeColor=#6c8ebf;strokeWidth=3;align=center;verticalAlign=middle;fontFamily=Helvetica;fontSize=11;fontColor=default;labelBackgroundColor=default;fillColor=#dae8fc;startArrow=oval;startFill=1;entryX=0.178;entryY=-0.002;entryDx=0;entryDy=0;entryPerimeter=0;" edge="1" parent="1" target="127">
                    <mxGeometry x="0.4052" y="-15" width="50" height="50" relative="1" as="geometry">
                        <mxPoint x="403" y="815" as="sourcePoint"/>
                        <mxPoint x="410" y="1316" as="targetPoint"/>
                        <mxPoint y="1" as="offset"/>
                        <Array as="points">
                            <mxPoint x="1148" y="820"/>
                        </Array>
                    </mxGeometry>
                </mxCell>
                <mxCell id="154" value="&lt;font style=&quot;font-size: 31px; color: rgb(204, 0, 0);&quot;&gt;×&lt;/font&gt;" style="text;html=1;align=center;verticalAlign=middle;whiteSpace=wrap;rounded=0;fontFamily=Helvetica;fontSize=11;fontColor=#CC0000;labelBackgroundColor=none;" vertex="1" parent="1">
                    <mxGeometry x="1414" y="1020" width="30" height="30" as="geometry"/>
                </mxCell>
                <mxCell id="155" value="&lt;font style=&quot;font-size: 31px; color: rgb(204, 0, 0);&quot;&gt;×&lt;/font&gt;" style="text;html=1;align=center;verticalAlign=middle;whiteSpace=wrap;rounded=0;fontFamily=Helvetica;fontSize=11;fontColor=#CC0000;labelBackgroundColor=none;" vertex="1" parent="1">
                    <mxGeometry x="1415" y="1050" width="30" height="30" as="geometry"/>
                </mxCell>
                <mxCell id="156" value="&lt;font style=&quot;font-size: 31px; color: rgb(204, 0, 0);&quot;&gt;×&lt;/font&gt;" style="text;html=1;align=center;verticalAlign=middle;whiteSpace=wrap;rounded=0;fontFamily=Helvetica;fontSize=11;fontColor=#CC0000;labelBackgroundColor=none;" vertex="1" parent="1">
                    <mxGeometry x="1414" y="1080" width="30" height="30" as="geometry"/>
                </mxCell>
                <mxCell id="157" value="" style="html=1;verticalLabelPosition=bottom;align=center;labelBackgroundColor=#ffffff;verticalAlign=top;strokeWidth=2;strokeColor=#0080F0;shadow=0;dashed=0;shape=mxgraph.ios7.icons.settings;fontFamily=Helvetica;fontSize=11;fontColor=default;" vertex="1" parent="1">
                    <mxGeometry x="1398" y="1025" width="20" height="20" as="geometry"/>
                </mxCell>
                <mxCell id="162" value="" style="html=1;verticalLabelPosition=bottom;align=center;labelBackgroundColor=#ffffff;verticalAlign=top;strokeWidth=2;strokeColor=#0080F0;shadow=0;dashed=0;shape=mxgraph.ios7.icons.settings;fontFamily=Helvetica;fontSize=11;fontColor=default;" vertex="1" parent="1">
                    <mxGeometry x="1398" y="1054" width="20" height="20" as="geometry"/>
                </mxCell>
                <mxCell id="163" value="" style="html=1;verticalLabelPosition=bottom;align=center;labelBackgroundColor=#ffffff;verticalAlign=top;strokeWidth=2;strokeColor=#0080F0;shadow=0;dashed=0;shape=mxgraph.ios7.icons.settings;fontFamily=Helvetica;fontSize=11;fontColor=default;" vertex="1" parent="1">
                    <mxGeometry x="1398" y="1084" width="20" height="20" as="geometry"/>
                </mxCell>
            </root>
        </mxGraphModel>
    </diagram>
</mxfile>